<?xml version="1.0" encoding="utf-8"?>
<!-- Generator: Adobe Illustrator 22.0.1, SVG Export Plug-In . SVG Version: 6.00 Build 0)  -->
<svg version="1.1" id="Layer_1" xmlns="http://www.w3.org/2000/svg" xmlns:xlink="http://www.w3.org/1999/xlink" x="0px" y="0px"
	 viewBox="0 0 500 500" style="enable-background:new 0 0 500 500;" xml:space="preserve">
<style type="text/css">
	.st0{fill:#333333;}
</style>
<title>icons/App_32/svg/spotify_black</title>
<desc>Created with Sketch.</desc>
<g id="Mask">
</g>
<path class="st0" d="M250,35C132,35,35,132,35,250s97,215,215,215s215-97,215-215S369.5,35,250,35z M348.7,345.5
	c-3.2,6.4-12.9,9.7-17.8,3.2c-50.1-30.7-114.8-37.2-190.7-19.4c-6.5,1.7-14.6-3.2-16.1-9.7c-1.7-6.4,3.2-14.6,9.7-16.1
	c82.3-18.1,151.8-11.6,208.6,22.4C350.2,330.8,351.9,340.5,348.7,345.5z M376,285.5c-4.9,6.4-14.6,11.4-22.6,4.9
	c-58.3-35.5-147.1-46.9-213.3-25.8c-9.7,1.7-17.8-1.7-19.4-11.4c-1.5-9.7,1.7-17.8,11.4-19.3c79.1-22.6,176.1-12.9,242.3,29
	C377.7,267.8,380.9,279,376,285.5z M377.7,227.4c-69.4-42.1-184.3-45.4-249-26c-11.4,3.2-21.1-3.2-25.8-12.9
	c-3.2-11.4,3.2-21.1,12.9-25.8c77.6-22.6,203.6-17.8,281.2,29c9.7,4.9,12.9,17.8,6.4,29C398.8,228.9,385.9,232.2,377.7,227.4z"/>
</svg>
